<svg width="1440" height="825" viewBox="0 0 1440 825" fill="none" xmlns="http://www.w3.org/2000/svg">
<path d="M0 224.64L131 141.159L262 150.266L393 83.481L524 124.463L655 100.177L785 191.247L916 109.284L1047 92.588L1178 174.551L1309 198.837L1440 124.463V0H1309H1178H1047H916H785H655H524H393H262H131H0V224.64Z" fill="#9EE09D"/>
<path d="M0 529.725L131 405.262L262 529.725L393 339.995L524 289.907L655 364.281L785 455.351L916 256.514L1047 503.922L1178 496.332L1309 397.673L1440 339.995V121.427L1309 195.801L1178 171.515L1047 89.5523L916 106.249L785 188.212L655 97.1415L524 121.427L393 80.4453L262 147.23L131 138.123L0 221.604V529.725Z" fill="#8FDB8D"/>
<path d="M0 594.992L131 479.636L262 587.403L393 496.332L524 364.281L655 529.725L785 561.599L916 371.87L1047 578.295L1178 652.669L1309 455.351L1440 421.958V336.96L1309 394.637L1178 493.297L1047 500.886L916 253.479L785 452.315L655 361.245L524 286.871L393 336.96L262 526.689L131 402.226L0 526.689V594.992Z" fill="#7FD67D"/>
<path d="M0 702.758L131 686.062L262 743.74L393 693.651L524 751.329L655 760.436L785 775.614L916 702.758L1047 734.633L1178 751.329L1309 734.633L1440 751.329V418.923L1309 452.315L1178 649.634L1047 575.26L916 368.834L785 558.564L655 526.689L524 361.245L393 493.297L262 584.367L131 476.601L0 591.956V702.758Z" fill="#6FD16D"/>
<path d="M0 825H130.985H261.97H392.955H523.939H654.924H784.909H915.894H1046.88H1177.86H1308.85H1439.83V747.957L1308.85 731.34L1177.86 747.957L1046.88 731.34L915.894 699.617L784.909 772.128L654.924 757.021L523.939 747.957L392.955 690.553L261.97 740.404L130.985 683L0 699.617V825Z" fill="#5ECC5C"/>
</svg>
