<svg width="1719" height="826" viewBox="0 0 1719 826" fill="none" xmlns="http://www.w3.org/2000/svg">
<path d="M0 224.64L156.308 141.159L312.617 150.266L468.925 83.481L625.233 124.463L781.542 100.177L936.657 191.247L1092.97 109.284L1249.27 92.588L1405.58 174.551L1561.89 198.837L1718.2 124.463V0H1561.89H1405.58H1249.27H1092.97H936.657H781.542H625.233H468.925H312.617H156.308H0V224.64Z" fill="#9EE09D"/>
<path d="M0 529.725L156.308 405.262L312.617 529.725L468.925 339.995L625.233 289.907L781.542 364.281L936.657 455.351L1092.97 256.514L1249.27 503.922L1405.58 496.332L1561.89 397.673L1718.2 339.995V121.427L1561.89 195.801L1405.58 171.515L1249.27 89.5523L1092.97 106.249L936.657 188.212L781.542 97.1415L625.233 121.427L468.925 80.4453L312.617 147.23L156.308 138.123L0 221.604V529.725Z" fill="#8FDB8D"/>
<path d="M0 594.992L156.308 479.636L312.617 587.403L468.925 496.332L625.233 364.281L781.542 529.725L936.657 561.599L1092.97 371.87L1249.27 578.295L1405.58 652.669L1561.89 455.351L1718.2 421.958V336.96L1561.89 394.637L1405.58 493.297L1249.27 500.886L1092.97 253.479L936.657 452.315L781.542 361.245L625.233 286.871L468.925 336.96L312.617 526.689L156.308 402.226L0 526.689V594.992Z" fill="#7FD67D"/>
<path d="M0 702.758L156.308 686.062L312.617 743.74L468.925 693.651L625.233 751.329L781.542 760.436L936.657 775.614L1092.97 702.758L1249.27 734.633L1405.58 751.329L1561.89 734.633L1718.2 751.329V418.923L1561.89 452.315L1405.58 649.634L1249.27 575.26L1092.97 368.834L936.657 558.564L781.542 526.689L625.233 361.245L468.925 493.297L312.617 584.367L156.308 476.601L0 591.956V702.758Z" fill="#6FD16D"/>
<path d="M0 825.703H156.308H312.617H468.925H625.233H781.542H936.657H1092.97H1249.27H1405.58H1561.89H1718.2V748.293L1561.89 731.597L1405.58 748.293L1249.27 731.597L1092.97 699.723L936.657 772.579L781.542 757.4L625.233 748.293L468.925 690.616L312.617 740.704L156.308 683.026L0 699.723V825.703Z" fill="#5ECC5C"/>
</svg>
